<svg width="89" height="50" viewBox="0 0 89 50" fill="none" xmlns="http://www.w3.org/2000/svg">
<path fill-rule="evenodd" clip-rule="evenodd" d="M86.919 36.1112H83.0966V47.2222C83.0353 47.967 82.7015 48.6626 82.1595 49.1755C81.6174 49.6884 80.9055 49.982 80.1605 50H2.60371C1.89826 49.9575 1.23572 49.6462 0.751684 49.1298C0.267647 48.6133 -0.00125709 47.9309 8.14128e-06 47.2222V2.7778C-0.00169337 2.07363 0.263372 1.39491 0.741584 0.879255C1.21982 0.363595 1.87551 0.0493513 2.57601 0H80.1328C80.8826 0.0111607 81.6013 0.301862 82.1492 0.815255C82.697 1.32882 83.0348 2.02829 83.0966 2.7778V13.8888H86.919C87.1373 13.8815 87.3549 13.9172 87.5594 13.9943C87.7639 14.0712 87.9512 14.1879 88.1107 14.3375C88.2702 14.4871 88.3987 14.6667 88.4889 14.8662C88.5791 15.0657 88.6292 15.2811 88.6364 15.5V34.5C88.6292 34.7189 88.5791 34.9343 88.4889 35.1338C88.3987 35.3333 88.2702 35.5129 88.1107 35.6625C87.9512 35.8121 87.7639 35.9288 87.5594 36.0057C87.3549 36.0828 87.1373 36.1185 86.919 36.1112ZM33.0547 24.6528L55.7551 7.14286L44.9271 22.4799L51.7451 25.2654L30.022 42.8571L40.8081 27.2531L33.0547 24.6528Z" fill="white"/>
</svg>
