<svg width="79" height="50" viewBox="0 0 79 50" fill="none" xmlns="http://www.w3.org/2000/svg">
<path fill-rule="evenodd" clip-rule="evenodd" d="M22.6742 0H49.4618L46.8258 8.15948L43.0805 19.7517H35.2534L33.8378 15.5048L31.3231 7.96083L28.1795 15.2651L24.6419 23.4848L21.2741 9.23628L19.4342 1.45227C19.6895 1.16596 19.9829 0.913308 20.3077 0.702089C21.0121 0.243771 21.8342 0 22.6742 0ZM10.404 45.6521V25.6018H12.638H14.5973L15.4013 23.8148L17.4279 19.3115L20.8524 33.8002L22.9611 42.7213L26.5849 34.301L30.6028 24.9652L30.8852 25.8123H33.0693H45.286H47.4915L48.1695 23.7135L49.2594 20.3402L52.4476 33.8013L55.095 44.9788L58.3059 33.95L60.7364 25.6018H61.926H66.8687V45.6521C66.8687 46.8055 66.4111 47.9111 65.5965 48.7264C64.782 49.542 63.6772 50 62.5252 50H56.0101C54.8582 50 53.7534 49.542 52.9388 48.7264C52.1243 47.9111 51.6667 46.8055 51.6667 45.6521V41.3045H25.6061V45.6521C25.6061 46.8055 25.1485 47.9111 24.3339 48.7264C23.5193 49.542 22.4146 50 21.2626 50H14.7475C13.5955 50 12.4908 49.542 11.6762 48.7264C10.8617 47.9111 10.404 46.8055 10.404 45.6521ZM61.1753 8.45503L66.0979 19.5412H64.2335L63.1621 15.6572L61.1753 8.45503ZM58.5673 2.5816L60.1129 6.06246L57.3314 15.6161L55.6978 21.2273L52.658 8.39252L50.6703 0H54.5985C55.4386 0 56.2606 0.243771 56.965 0.702089C57.6694 1.16041 58.226 1.8133 58.5673 2.5816ZM51.1837 8.74171L49.9342 3.46643L48.2675 8.62519L44.1833 21.2669H34.1614L32.4004 15.9838L31.143 12.2118L29.5713 15.864L24.2217 28.294L19.7996 9.58474L18.7736 5.24421L16.9434 9.31175L11.6583 21.0564H0V24.0867H12.638H13.6176L14.0196 23.193L17.8765 14.6225L22.3269 33.4517L23.3813 37.9121L25.1932 33.7021L30.7829 20.7142L31.6319 23.2611L31.9772 24.2972H33.0693H45.286H46.3888L46.7278 23.2477L49.4843 14.7154L53.922 33.4521L55.2456 39.041L56.8511 33.5264L60.2017 22.0182L60.4654 22.9744L60.7722 24.0867H61.926H78.9872V21.0564H63.0797L61.7015 16.06L60.2802 10.9079L58.7861 16.0397L55.5471 27.1651L51.1837 8.74171Z" fill="white"/>
</svg>
