<svg width="70" height="70" viewBox="0 0 70 70" fill="none" xmlns="http://www.w3.org/2000/svg">
<path d="M7.77632 0C3.4813 0 0 3.4813 0 7.77632C0.00328115 10.5522 1.48308 13.118 3.88816 14.506V30.4556C3.81926 30.8756 3.81926 31.3054 3.88816 31.7254V47.721C1.48636 49.1089 0.00328115 51.6682 0 54.4441C0 58.7391 3.4813 62.2204 7.77632 62.2204C12.0713 62.2204 15.5526 58.7391 15.5526 54.4441C15.5494 51.6682 14.0696 49.1024 11.6645 47.7144V35H31.1086V47.7144C28.7035 49.1024 27.2204 51.6682 27.2204 54.4441C27.2204 58.7391 30.7017 62.2204 34.9967 62.2204C39.2917 62.2204 42.773 58.7391 42.773 54.4441C42.7665 51.6715 41.2867 49.1089 38.8849 47.721V35H58.329V55.5006C55.9272 56.8885 54.4441 59.4478 54.4408 62.2237C54.4408 66.5187 57.9221 70 62.2171 70C66.5121 70 69.9934 66.5187 69.9934 62.2237C69.9902 59.4478 68.5104 56.882 66.1053 55.494V31.7681C66.1742 31.3481 66.1742 30.9183 66.1053 30.4983V14.5027C68.5071 13.1147 69.9902 10.5555 69.9934 7.7796C69.9934 3.48458 66.5121 0 62.2171 0C57.9221 0 54.4408 3.4813 54.4408 7.77632C54.4441 10.5522 55.9239 13.118 58.329 14.506V27.2204H38.8849V14.4994C41.2867 13.1115 42.7698 10.5522 42.773 7.77632C42.773 3.4813 39.2917 0 34.9967 0C30.7017 0 27.2204 3.4813 27.2204 7.77632C27.2237 10.5522 28.7035 13.118 31.1086 14.506V27.2204H11.6645V14.4994C14.0663 13.1115 15.5494 10.5522 15.5526 7.77632C15.5526 3.4813 12.0713 0 7.77632 0Z" fill="white"/>
</svg>
