<svg width="60" height="60" viewBox="0 0 60 60" fill="none" xmlns="http://www.w3.org/2000/svg">
<path d="M2.77252e-06 30.0064C-0.0023055 24.6371 1.43675 19.3656 4.16694 14.7423C6.89713 10.1189 10.8184 6.31326 15.5212 3.72251C20.2241 1.13177 25.5363 -0.149038 30.9031 0.0137996C36.2699 0.176637 41.4946 1.77715 46.0318 4.64825L49.8791 0.803634C50.2609 0.421922 50.7475 0.162155 51.2771 0.057253C51.8067 -0.0476491 52.3555 0.00703646 52.854 0.214379C53.3525 0.421722 53.7783 0.772388 54.0773 1.22194C54.3763 1.67148 54.5351 2.19968 54.5336 2.73958V13.6463C54.5336 14.3694 54.2463 15.063 53.7349 15.5743C53.2236 16.0857 52.53 16.373 51.8069 16.373H40.9002C40.361 16.3728 39.8339 16.2129 39.3856 15.9133C38.9373 15.6136 38.5879 15.1878 38.3816 14.6897C38.1753 14.1915 38.1213 13.6433 38.2264 13.1145C38.3316 12.5857 38.5912 12.0999 38.9724 11.7185L42.0481 8.64283C38.3159 6.53242 34.0956 5.43738 29.8082 5.46691C25.5207 5.49645 21.3159 6.64953 17.6131 8.81116C13.9104 10.9728 10.839 14.0674 8.70541 17.7864C6.5718 21.5054 5.45051 25.7188 5.45336 30.0064C5.45336 30.7295 5.16608 31.4231 4.65473 31.9344C4.14338 32.4458 3.44984 32.733 2.72668 32.733C2.00352 32.733 1.30998 32.4458 0.798628 31.9344C0.287277 31.4231 2.77252e-06 30.7295 2.77252e-06 30.0064ZM57.2602 27.2797C56.5371 27.2797 55.8435 27.5669 55.3322 28.0783C54.8208 28.5897 54.5336 29.2832 54.5336 30.0064C54.5263 36.5126 51.9386 42.7503 47.338 47.3509C42.7374 51.9515 36.4997 54.5392 29.9935 54.5465C25.7679 54.554 21.6135 53.4581 17.9415 51.3671L21.0145 48.2942C21.3957 47.9128 21.6553 47.4271 21.7605 46.8982C21.8656 46.3694 21.8116 45.8212 21.6053 45.323C21.399 44.8249 21.0496 44.3991 20.6013 44.0995C20.153 43.7998 19.6259 43.6399 19.0867 43.6397H8.18004C7.45688 43.6397 6.76333 43.927 6.25198 44.4384C5.74063 44.9497 5.45336 45.6433 5.45336 46.3664V57.2731C5.45322 57.8124 5.61298 58.3395 5.91244 58.788C6.21189 59.2365 6.63759 59.586 7.13572 59.7926C7.46655 59.9305 7.8216 60.001 8.18004 59.9998C8.90314 59.9997 9.59656 59.7123 10.1078 59.2009L13.9551 55.3645C18.748 58.4114 24.3141 60.0201 29.9935 59.9998C37.9453 59.9904 45.5688 56.8274 51.1917 51.2046C56.8145 45.5817 59.9775 37.9582 59.9869 30.0064C59.9869 29.2832 59.6996 28.5897 59.1883 28.0783C58.6769 27.5669 57.9834 27.2797 57.2602 27.2797Z" fill="white"/>
</svg>
