<svg width="206" height="60" viewBox="0 0 206 60" fill="none" xmlns="http://www.w3.org/2000/svg">
<path d="M133.714 56.459L137.64 51.541H139.682L141.144 56.459H139.075L138.08 52.3068H138.89L135.906 56.459H133.714ZM135.528 55.6019L136.355 54.4075H139.189L139.418 55.6019H135.528Z" fill="#CDFF52"/>
<path d="M144.453 56.5714C143.814 56.5714 143.28 56.4754 142.851 56.2834C142.423 56.0867 142.118 55.815 141.936 55.4684C141.76 55.1171 141.73 54.7096 141.848 54.2459L142.526 51.541H144.603L143.934 54.2178C143.893 54.3911 143.878 54.541 143.89 54.6674C143.902 54.7939 143.94 54.8993 144.004 54.9836C144.075 55.0679 144.169 55.1312 144.286 55.1733C144.403 55.2108 144.544 55.2295 144.709 55.2295C144.908 55.2295 145.078 55.1967 145.219 55.1311C145.366 55.0656 145.486 54.9578 145.58 54.808C145.68 54.6581 145.759 54.4614 145.818 54.2178L146.487 51.541H148.529L147.833 54.3162C147.651 55.0515 147.279 55.6112 146.716 55.9953C146.152 56.3794 145.398 56.5714 144.453 56.5714Z" fill="#CDFF52"/>
<path d="M149.501 56.459L150.407 52.8267H148.603L148.929 51.541H154.615L154.289 52.8267H152.485L151.578 56.459H149.501Z" fill="#CDFF52"/>
<path d="M157.304 56.5714C156.665 56.5714 156.11 56.4778 155.641 56.2904C155.177 56.103 154.816 55.8454 154.558 55.5176C154.306 55.185 154.179 54.8033 154.179 54.3724C154.179 53.9368 154.273 53.541 154.461 53.185C154.655 52.8244 154.925 52.5129 155.271 52.2506C155.617 51.9883 156.028 51.7869 156.503 51.6464C156.979 51.5012 157.498 51.4286 158.061 51.4286C158.701 51.4286 159.252 51.5223 159.716 51.7096C160.185 51.897 160.546 52.1569 160.799 52.4895C161.057 52.8173 161.186 53.1967 161.186 53.6276C161.186 54.0632 161.089 54.4614 160.896 54.822C160.708 55.178 160.441 55.4871 160.095 55.7494C159.748 56.0117 159.338 56.2155 158.862 56.3607C158.387 56.5012 157.868 56.5714 157.304 56.5714ZM157.48 55.2295C157.738 55.2295 157.964 55.1897 158.158 55.1101C158.358 55.0304 158.528 54.9204 158.669 54.7799C158.809 54.6393 158.915 54.4801 158.985 54.3021C159.056 54.1194 159.091 53.9274 159.091 53.726C159.091 53.534 159.041 53.3677 158.941 53.2272C158.848 53.082 158.71 52.9696 158.528 52.8899C158.352 52.8103 158.137 52.7705 157.885 52.7705C157.633 52.7705 157.407 52.8103 157.207 52.8899C157.008 52.9696 156.838 53.0796 156.697 53.2201C156.556 53.3607 156.45 53.5223 156.38 53.7049C156.31 53.8829 156.274 54.0726 156.274 54.274C156.274 54.4614 156.321 54.6276 156.415 54.7728C156.515 54.918 156.653 55.0304 156.829 55.1101C157.011 55.1897 157.228 55.2295 157.48 55.2295Z" fill="#CDFF52"/>
<path d="M163.936 56.459L165.169 51.541H166.859L168.505 54.7518H167.607L170.776 51.541H172.545L171.33 56.459H169.438L170.08 53.8173L170.38 53.8033L168.25 56.0164H167.334L166.137 53.7963L166.489 53.8173L165.829 56.459H163.936Z" fill="#CDFF52"/>
<path d="M175.803 56.5714C175.163 56.5714 174.609 56.4778 174.139 56.2904C173.676 56.103 173.315 55.8454 173.056 55.5176C172.804 55.185 172.678 54.8033 172.678 54.3724C172.678 53.9368 172.772 53.541 172.96 53.185C173.153 52.8244 173.423 52.5129 173.769 52.2506C174.116 51.9883 174.526 51.7869 175.002 51.6464C175.477 51.5012 175.996 51.4286 176.56 51.4286C177.199 51.4286 177.751 51.5223 178.215 51.7096C178.684 51.897 179.045 52.1569 179.297 52.4895C179.556 52.8173 179.685 53.1967 179.685 53.6276C179.685 54.0632 179.588 54.4614 179.394 54.822C179.206 55.178 178.939 55.4871 178.593 55.7494C178.247 56.0117 177.836 56.2155 177.361 56.3607C176.885 56.5012 176.366 56.5714 175.803 56.5714ZM175.979 55.2295C176.237 55.2295 176.463 55.1897 176.657 55.1101C176.856 55.0304 177.026 54.9204 177.167 54.7799C177.308 54.6393 177.414 54.4801 177.484 54.3021C177.554 54.1194 177.59 53.9274 177.59 53.726C177.59 53.534 177.54 53.3677 177.44 53.2272C177.346 53.082 177.208 52.9696 177.026 52.8899C176.85 52.8103 176.636 52.7705 176.384 52.7705C176.131 52.7705 175.906 52.8103 175.706 52.8899C175.506 52.9696 175.336 53.0796 175.195 53.2201C175.055 53.3607 174.949 53.5223 174.879 53.7049C174.808 53.8829 174.773 54.0726 174.773 54.274C174.773 54.4614 174.82 54.6276 174.914 54.7728C175.014 54.918 175.151 55.0304 175.327 55.1101C175.509 55.1897 175.727 55.2295 175.979 55.2295Z" fill="#CDFF52"/>
<path d="M181.048 56.459L181.955 52.8267H180.15L180.476 51.541H186.162L185.836 52.8267H184.032L183.125 56.459H181.048Z" fill="#CDFF52"/>
<path d="M188.852 56.5714C188.212 56.5714 187.657 56.4778 187.188 56.2904C186.724 56.103 186.363 55.8454 186.105 55.5176C185.853 55.185 185.727 54.8033 185.727 54.3724C185.727 53.9368 185.821 53.541 186.008 53.185C186.202 52.8244 186.472 52.5129 186.818 52.2506C187.164 51.9883 187.575 51.7869 188.051 51.6464C188.526 51.5012 189.045 51.4286 189.609 51.4286C190.248 51.4286 190.8 51.5223 191.263 51.7096C191.733 51.897 192.094 52.1569 192.346 52.4895C192.604 52.8173 192.733 53.1967 192.733 53.6276C192.733 54.0632 192.637 54.4614 192.443 54.822C192.255 55.178 191.988 55.4871 191.642 55.7494C191.296 56.0117 190.885 56.2155 190.41 56.3607C189.934 56.5012 189.415 56.5714 188.852 56.5714ZM189.028 55.2295C189.286 55.2295 189.512 55.1897 189.705 55.1101C189.905 55.0304 190.075 54.9204 190.216 54.7799C190.357 54.6393 190.462 54.4801 190.533 54.3021C190.603 54.1194 190.638 53.9274 190.638 53.726C190.638 53.534 190.589 53.3677 190.489 53.2272C190.395 53.082 190.257 52.9696 190.075 52.8899C189.899 52.8103 189.685 52.7705 189.433 52.7705C189.18 52.7705 188.954 52.8103 188.755 52.8899C188.555 52.9696 188.385 53.0796 188.244 53.2201C188.103 53.3607 187.998 53.5223 187.927 53.7049C187.857 53.8829 187.822 54.0726 187.822 54.274C187.822 54.4614 187.869 54.6276 187.963 54.7728C188.062 54.918 188.2 55.0304 188.376 55.1101C188.558 55.1897 188.775 55.2295 189.028 55.2295Z" fill="#CDFF52"/>
<path d="M192.845 56.459L194.077 51.541H196.841C197.657 51.541 198.288 51.6838 198.734 51.9696C199.18 52.2506 199.402 52.6464 199.402 53.1569C199.402 53.5691 199.273 53.9297 199.015 54.2389C198.763 54.548 198.402 54.7892 197.933 54.9625C197.469 55.1358 196.92 55.2225 196.286 55.2225H194.297L195.406 54.5269L194.922 56.459H192.845ZM196.612 56.459L195.345 54.6674H197.484L198.769 56.459H196.612ZM195.353 54.7237L194.623 53.9719H196.392C196.68 53.9719 196.903 53.9157 197.061 53.8033C197.22 53.6862 197.299 53.5246 197.299 53.3185C197.299 53.1405 197.228 53.0141 197.087 52.9391C196.953 52.8595 196.765 52.8197 196.524 52.8197H194.913L196.022 52.0468L195.353 54.7237Z" fill="#CDFF52"/>
<path d="M201.851 56.5714C201.487 56.5714 201.138 56.5504 200.803 56.5082C200.469 56.466 200.163 56.4075 199.888 56.3326C199.618 56.2529 199.383 56.1663 199.183 56.0726L199.984 54.8501C200.213 54.9532 200.442 55.0398 200.671 55.1101C200.906 55.1756 201.138 55.2248 201.366 55.2576C201.601 55.2904 201.833 55.3068 202.062 55.3068C202.244 55.3068 202.393 55.2951 202.511 55.2717C202.634 55.2482 202.725 55.2155 202.784 55.1733C202.848 55.1265 202.88 55.0749 202.88 55.0187C202.88 54.9438 202.828 54.8829 202.722 54.8361C202.616 54.7892 202.476 54.7471 202.299 54.7096C202.129 54.6721 201.939 54.6347 201.727 54.5972C201.522 54.555 201.314 54.5035 201.102 54.4426C200.891 54.3771 200.697 54.2951 200.521 54.1967C200.351 54.0984 200.213 53.9742 200.108 53.8244C200.002 53.6745 199.949 53.4918 199.949 53.2763C199.949 52.9016 200.073 52.5761 200.319 52.2998C200.571 52.0234 200.929 51.8103 201.393 51.6604C201.862 51.5059 202.42 51.4286 203.065 51.4286C203.523 51.4286 203.948 51.466 204.342 51.541C204.741 51.6112 205.084 51.7143 205.371 51.8501L204.623 53.0586C204.377 52.9368 204.107 52.8454 203.813 52.7845C203.526 52.7237 203.233 52.6932 202.933 52.6932C202.734 52.6932 202.566 52.7096 202.432 52.7424C202.297 52.7705 202.194 52.8103 202.123 52.8618C202.059 52.9134 202.027 52.9672 202.027 53.0234C202.027 53.0984 202.079 53.1616 202.185 53.2131C202.291 53.26 202.432 53.3021 202.608 53.3396C202.784 53.3724 202.974 53.4098 203.18 53.452C203.391 53.4895 203.599 53.5386 203.805 53.5995C204.016 53.6557 204.21 53.733 204.386 53.8314C204.562 53.9251 204.703 54.0468 204.808 54.1967C204.914 54.3419 204.967 54.5223 204.967 54.7377C204.967 55.103 204.84 55.4239 204.588 55.7002C204.336 55.9719 203.975 56.185 203.505 56.3396C203.042 56.4941 202.49 56.5714 201.851 56.5714Z" fill="#CDFF52"/>
<mask id="mask0_105_1731" style="mask-type:alpha" maskUnits="userSpaceOnUse" x="0" y="20" width="146" height="40">
<rect y="20.7429" width="145.371" height="39.2571" fill="#D9D9D9"/>
</mask>
<g mask="url(#mask0_105_1731)">
<g filter="url(#filter0_d_105_1731)">
<path d="M3.2229 55.8858L26.16 19.8858H38.0915L46.6286 55.8858H34.5429L28.7315 25.4916H33.4629L16.0286 55.8858H3.2229ZM13.8172 49.6116L18.6515 40.8687H35.2115L36.5486 49.6116H13.8172Z" fill="#222222"/>
<path d="M48.5656 55.8858L55.7656 19.8858H65.6399L75.2571 43.3887H70.0113L88.5256 19.8858H98.8628L91.7656 55.8858H80.7085L84.4628 36.5487L86.2113 36.4458L73.7656 52.6458H68.4171L61.4228 36.3944L63.4799 36.5487L59.6228 55.8858H48.5656Z" fill="#222222"/>
<path d="M118.102 56.7087C114.399 56.7087 111.159 56.0401 108.382 54.703C105.605 53.3316 103.445 51.4458 101.902 49.0458C100.394 46.6116 99.6394 43.8001 99.6394 40.6116C99.6394 37.4573 100.188 34.5601 101.285 31.9201C102.417 29.2801 104.011 27.0001 106.068 25.0801C108.125 23.1601 110.559 21.6858 113.371 20.6573C116.217 19.5944 119.354 19.063 122.782 19.063C126.554 19.063 129.794 19.663 132.502 20.863C135.245 22.0287 137.457 23.7773 139.137 26.1087L130.445 32.8458C129.279 31.3373 128.045 30.3087 126.742 29.7601C125.439 29.1773 123.931 28.8858 122.217 28.8858C120.639 28.8858 119.217 29.1601 117.948 29.7087C116.679 30.223 115.582 30.9773 114.657 31.9716C113.765 32.9316 113.079 34.0801 112.599 35.4173C112.119 36.7544 111.879 38.2287 111.879 39.8401C111.879 41.2458 112.188 42.4801 112.805 43.543C113.457 44.6058 114.365 45.4287 115.531 46.0116C116.731 46.5944 118.154 46.8858 119.799 46.8858C121.171 46.8858 122.542 46.663 123.914 46.2173C125.285 45.7373 126.691 44.9316 128.131 43.8001L130.419 48.1201L132.708 52.4401C130.822 53.8116 128.628 54.8744 126.125 55.6287C123.622 56.3487 120.948 56.7087 118.102 56.7087ZM122.525 50.5887L125.251 36.9087H135.794L132.708 52.4401L122.525 50.5887Z" fill="#222222"/>
<path d="M2.80122 55.6172C2.70313 55.7711 2.69674 55.9663 2.78453 56.1263C2.87233 56.2864 3.04036 56.3858 3.2229 56.3858H16.0286C16.2078 56.3858 16.3732 56.29 16.4623 56.1346L19.9172 50.1116H32.9298L34.0518 55.9797C34.0969 56.2154 34.303 56.3858 34.5429 56.3858H46.6286C46.7815 56.3858 46.926 56.3159 47.0208 56.1959C47.1157 56.076 47.1504 55.9193 47.1151 55.7705L38.578 19.7705C38.5245 19.545 38.3232 19.3858 38.0915 19.3858H26.16C25.9892 19.3858 25.8302 19.4731 25.7384 19.6172L2.80122 55.6172ZM29.6766 33.0973L31.0669 40.3687H25.5057L29.6766 33.0973ZM48.0753 55.7878C48.046 55.9347 48.084 56.087 48.179 56.2028C48.2739 56.3187 48.4158 56.3858 48.5656 56.3858H59.6228C59.8612 56.3858 60.0665 56.2175 60.1131 55.9837L63.0255 41.3831L67.9578 52.8435C68.0367 53.027 68.2173 53.1458 68.4171 53.1458H73.7656C73.921 53.1458 74.0675 53.0736 74.1621 52.9505L83.0034 41.4422L80.2177 55.7906C80.1892 55.9371 80.2277 56.0887 80.3227 56.2039C80.4177 56.3191 80.5592 56.3858 80.7085 56.3858H91.7656C92.0045 56.3858 92.21 56.2169 92.2562 55.9826L99.3533 19.9826C99.3823 19.8358 99.344 19.6838 99.249 19.5683C99.154 19.4528 99.0123 19.3858 98.8628 19.3858H88.5256C88.3724 19.3858 88.2277 19.4561 88.1329 19.5764L73.6017 38.023L66.1027 19.6965C66.0258 19.5086 65.8429 19.3858 65.6399 19.3858H55.7656C55.5273 19.3858 55.3221 19.5541 55.2753 19.7878L48.0753 55.7878ZM108.161 55.1513L108.165 55.1535C111.022 56.5291 114.339 57.2087 118.102 57.2087C120.99 57.2087 123.712 56.8433 126.263 56.1093L126.269 56.1074C128.82 55.3389 131.066 54.2527 133.002 52.8445C133.104 52.7705 133.174 52.6609 133.198 52.5376L136.284 37.0061C136.313 36.8593 136.275 36.7072 136.18 36.5915C136.085 36.4758 135.943 36.4087 135.794 36.4087H125.251C125.012 36.4087 124.807 36.5771 124.76 36.811L122.933 45.9823C121.886 46.2518 120.842 46.3858 119.799 46.3858C118.213 46.3858 116.869 46.1052 115.752 45.5631C114.669 45.0211 113.834 44.2631 113.235 43.2869C112.67 42.3118 112.379 41.1682 112.379 39.8401C112.379 38.2786 112.612 36.8624 113.07 35.5862C113.529 34.3074 114.181 33.2186 115.023 32.3122C115.898 31.3717 116.934 30.6591 118.136 30.1721L118.136 30.1722L118.146 30.1676C119.344 29.6497 120.698 29.3858 122.217 29.3858C123.874 29.3858 125.311 29.6676 126.538 30.2165L126.538 30.2167L126.548 30.2209C127.749 30.7264 128.919 31.6884 130.049 33.1516C130.131 33.2566 130.25 33.3251 130.382 33.3418C130.514 33.3586 130.647 33.3223 130.751 33.241L139.443 26.5039C139.656 26.3389 139.7 26.0349 139.542 25.8164C137.807 23.409 135.523 21.6043 132.701 20.4043C129.915 19.1705 126.603 18.563 122.782 18.563C119.302 18.563 116.105 19.1024 113.198 20.1883C110.328 21.2383 107.836 22.7464 105.727 24.7146C103.618 26.683 101.984 29.0207 100.826 31.7232L100.823 31.7282C99.6985 34.4351 99.1394 37.3982 99.1394 40.6116C99.1394 43.8823 99.9143 46.7871 101.477 49.3092L101.477 49.3093L101.482 49.3162C103.078 51.799 105.31 53.7433 108.161 55.1513Z" stroke="#CDFF52" stroke-linejoin="round"/>
</g>
</g>
<path d="M126.549 6.36656C124.856 6.00205 119.639 4.80506 117.961 4.4701C109.377 2.75097 100.745 1.55399 91.9691 1.7658C87.9514 1.84954 84.0719 2.83964 80.2565 3.8987C77.1733 4.74924 74.1049 5.66873 71.0513 6.65719C67.1027 7.92314 63.011 8.10047 58.9341 8.4108C56.7673 8.57335 54.5906 8.65217 52.4238 8.79995C52.1672 8.79995 51.7871 8.94772 51.718 9.12506C51.6489 9.30239 51.8464 9.61764 52.0043 9.84916C52.5867 10.6176 53.2086 11.3565 53.7762 12.1889C47.4733 9.14476 41.3727 8.24825 35.7361 13.6667L35.5831 13.4401C35.7805 12.9475 35.9977 12.4549 36.1655 11.9624C36.2445 11.7358 36.3284 11.3959 36.2148 11.258C36.1143 11.1892 35.9994 11.1442 35.8788 11.1263C35.7582 11.1084 35.6352 11.118 35.5189 11.1545C33.722 11.6446 31.9511 12.2249 30.213 12.8933C28.4605 13.6615 26.7621 14.5469 25.1292 15.5435C23.6879 16.3907 23.7669 16.8833 25.0156 17.9769C25.6583 18.6411 26.2337 19.367 26.7333 20.1442C26.7826 20.2083 26.7333 20.3511 26.6888 20.7255C26.3581 20.4299 26.1558 20.2723 25.9732 20.09C25.4253 19.5334 24.9021 18.962 24.3394 18.4202C24.0976 18.1837 23.7718 18.031 23.5201 17.7995C22.7748 17.105 22.7896 16.4597 23.5596 15.775C25.9633 13.6519 28.8556 12.4057 31.8023 11.2875C33.5466 10.6504 35.3225 10.1029 37.123 9.6472C38.233 9.41833 39.3553 9.25386 40.4843 9.15461C40.7952 9.11028 41.1062 9.04624 41.4171 9.02161C43.0657 8.89354 44.7142 8.75561 46.3529 8.65709C46.8909 8.62754 47.3696 8.70635 47.799 8.16451C48.0212 7.88866 48.6233 7.86403 49.0626 7.83447C51.2343 7.71133 53.411 7.66207 55.5827 7.51922C60.4 7.19904 64.9606 5.72128 69.4768 4.1844C72.5913 3.13027 75.7403 2.17957 78.8992 1.27321C83.445 -0.0222946 88.1143 -0.120811 92.7884 0.0811497C98.5139 0.386145 104.209 1.11388 109.827 2.25839C114.061 3.08101 118.242 4.19425 122.447 5.17943C122.664 5.23361 126.396 6.13505 126.593 6.20893L126.549 6.36656Z" fill="#CDFF52"/>
<path d="M103.901 12.3367C100.994 12.5486 96.9542 12.7702 94.0471 12.9673C85.2812 13.5633 76.5153 14.1741 67.7444 14.7209C64.6596 14.913 61.5698 14.977 58.4801 15.0263C57.6191 14.973 56.764 14.8494 55.9233 14.6568L55.953 14.248L103.901 12.1102V12.3367Z" fill="#CDFF52"/>
<path d="M137.496 2.42588C136.707 3.59824 136.124 4.7903 134.723 4.95778C132.6 5.21393 130.463 5.37156 128.306 5.4947C127.408 5.54396 127.284 5.209 127.664 4.37653C128.311 2.95788 129.244 2.12541 130.952 2.22885C132.659 2.33229 134.491 2.22885 136.263 2.22885C136.678 2.26826 137.09 2.33407 137.496 2.42588Z" fill="#CDFF52"/>
<path d="M133.439 14.1249C132.408 14.0411 130.547 13.8884 129.515 13.8342C128.537 13.7928 127.583 13.5252 126.726 13.0524C125.869 12.5797 125.135 11.9148 124.58 11.1102C124.116 10.4945 124.175 10.0758 124.895 9.89848C128.227 9.08078 131.569 8.31234 134.905 7.52913C134.979 7.52913 135.063 7.55869 135.221 7.59317C135.109 7.98908 134.881 8.34207 134.564 8.60579C134.248 8.86952 133.859 9.03166 133.449 9.07093C131.514 9.45022 129.575 9.81474 127.635 10.1891C127.413 10.2285 127.186 10.263 126.964 10.3221C126.06 10.5635 125.976 10.8147 126.588 11.5191C127.763 12.9033 129.352 13.3761 131.065 13.6027C131.559 13.6717 132.931 13.7751 133.449 13.8342L135.221 14.1249H133.439Z" fill="#CDFF52"/>
<defs>
<filter id="filter0_d_105_1731" x="0.7229" y="16.063" width="141.914" height="43.6457" filterUnits="userSpaceOnUse" color-interpolation-filters="sRGB">
<feFlood flood-opacity="0" result="BackgroundImageFix"/>
<feColorMatrix in="SourceAlpha" type="matrix" values="0 0 0 0 0 0 0 0 0 0 0 0 0 0 0 0 0 0 127 0" result="hardAlpha"/>
<feOffset dx="0.5"/>
<feGaussianBlur stdDeviation="1"/>
<feComposite in2="hardAlpha" operator="out"/>
<feColorMatrix type="matrix" values="0 0 0 0 0.803922 0 0 0 0 1 0 0 0 0 0.321569 0 0 0 1 0"/>
<feBlend mode="normal" in2="BackgroundImageFix" result="effect1_dropShadow_105_1731"/>
<feBlend mode="normal" in="SourceGraphic" in2="effect1_dropShadow_105_1731" result="shape"/>
</filter>
</defs>
</svg>
