<svg width="30" height="25" viewBox="0 0 30 25" fill="none" xmlns="http://www.w3.org/2000/svg">
<path fill-rule="evenodd" clip-rule="evenodd" d="M22.9802 24.7244C23.1785 24.8655 23.4083 24.9558 23.6495 24.9874C23.8908 25.019 24.1361 24.9909 24.364 24.9057C24.5905 24.8201 24.792 24.6792 24.9501 24.4958C25.1082 24.3124 25.2178 24.0923 25.269 23.8557C26.3553 18.7506 28.9903 5.82916 29.9791 1.18535C30.0157 1.01278 30.0048 0.833522 29.9475 0.666662C29.8903 0.499802 29.7889 0.351595 29.6541 0.237834C29.5185 0.122733 29.3548 0.0458408 29.1797 0.0150803C29.0046 -0.0156801 28.8244 0.000802886 28.6578 0.0628312C23.4165 2.00286 7.275 8.05919 0.677406 10.5005C0.474099 10.575 0.299334 10.7115 0.177772 10.8907C0.0562113 11.0699 -0.00600757 11.2828 -0.000103836 11.4992C0.0148964 11.9417 0.3124 12.3255 0.741156 12.4543C3.69995 13.3393 7.58375 14.5705 7.58375 14.5705C7.58375 14.5705 9.39878 20.0519 10.345 22.8394C10.4638 23.1894 10.7375 23.4644 11.0988 23.5594C11.2759 23.6055 11.4617 23.6059 11.639 23.5606C11.8163 23.5154 11.9792 23.4259 12.1126 23.3007L15.9826 19.6469C15.9826 19.6469 20.4477 22.9206 22.9802 24.7244ZM9.21752 13.878L11.3163 20.8006L11.7826 16.4168L24.514 4.93415C24.5793 4.87548 24.62 4.79416 24.6276 4.70666C24.6353 4.61916 24.6094 4.53203 24.5552 4.46289C24.5008 4.3936 24.4225 4.34704 24.3357 4.33225C24.2488 4.31747 24.1595 4.33552 24.0852 4.38289L9.21752 13.878Z" fill="#4BBFFC"/>
</svg>
