<svg width="31" height="31" viewBox="0 0 31 31" fill="none" xmlns="http://www.w3.org/2000/svg">
<path fill-rule="evenodd" clip-rule="evenodd" d="M18.1806 6.96109C17.2505 6.58091 16.2499 6.39643 15.2431 6.41949C15.0263 6.42445 14.8465 6.25538 14.8414 6.04186C14.8364 5.82834 15.008 5.65122 15.2249 5.64625C16.3411 5.62069 17.4504 5.82522 18.4816 6.24673C19.5129 6.66823 20.4432 7.29739 21.2131 8.09384C21.9829 8.8903 22.5752 9.83645 22.9519 10.8716C23.3286 11.9067 23.4814 13.008 23.4005 14.1047C23.3848 14.3177 23.1967 14.4779 22.9804 14.4624C22.7641 14.4469 22.6015 14.2617 22.6172 14.0487C22.6902 13.0595 22.5523 12.0662 22.2126 11.1325C21.8728 10.1989 21.3386 9.34549 20.6442 8.62712C19.9499 7.90875 19.1107 7.34127 18.1806 6.96109ZM17.766 8.79719C17.1892 8.5546 16.5684 8.42987 15.9412 8.43055C15.7244 8.43078 15.5484 8.25783 15.5481 8.04425C15.5479 7.83067 15.7235 7.65734 15.9404 7.6571C16.6739 7.65631 17.3999 7.80218 18.0745 8.08589C18.749 8.36959 19.3581 8.78522 19.8647 9.30759C20.3714 9.82996 20.7651 10.4482 21.022 11.1248C21.2789 11.8015 21.3936 12.5224 21.3592 13.244C21.349 13.4574 21.1652 13.6222 20.9486 13.6122C20.7319 13.6022 20.5646 13.4211 20.5747 13.2078C20.6041 12.5908 20.506 11.9743 20.2864 11.3957C20.0667 10.8171 19.7301 10.2885 19.2969 9.84183C18.8636 9.39517 18.3428 9.03978 17.766 8.79719ZM17.2909 10.6524C17.0406 10.5552 16.7727 10.5096 16.5038 10.5186C16.2871 10.5259 16.1054 10.3587 16.0981 10.1452C16.0907 9.93178 16.2605 9.75287 16.4772 9.74563C16.8537 9.73305 17.2287 9.7968 17.5791 9.93293C17.9295 10.0691 18.2477 10.2746 18.514 10.5369C18.7804 10.7993 18.9891 11.1127 19.1273 11.4577C19.2656 11.8028 19.3303 12.1722 19.3175 12.5429C19.3102 12.7564 19.1285 12.9235 18.9118 12.9163C18.695 12.9091 18.5253 12.7301 18.5326 12.5167C18.5418 12.2519 18.4955 11.988 18.3968 11.7416C18.2981 11.4951 18.149 11.2712 17.9587 11.0839C17.7685 10.8965 17.5412 10.7496 17.2909 10.6524Z" fill="#7D63FF"/>
<path fill-rule="evenodd" clip-rule="evenodd" d="M2.82575 13.69C2.82575 6.65162 4.16083 2.32033 15.4697 2.32033C26.7786 2.32033 28.1137 6.65162 28.1137 13.69C28.1137 20.7283 26.7786 25.0596 15.4697 25.0596L13.4278 24.9823L9.26554 29.855C8.9514 30.1643 8.63727 29.9323 8.63727 29.6229V24.2862C8.16606 24.2862 6.20271 23.358 5.65297 22.8166C3.92522 21.0377 2.82575 19.7228 2.82575 13.69ZM0.469727 13.69C0.469727 3.94457 4.7891 0 15.4697 0C26.1504 0 30.4697 3.94457 30.4697 13.69C30.4697 23.4354 26.1504 27.3799 15.4697 27.3799C14.6844 27.3799 14.0561 27.3799 12.9566 27.2252L9.97234 30.5511C9.42261 31.1698 7.77339 31.4018 7.77339 29.5456V26.2971C7.30219 26.2971 6.20271 25.833 4.71056 24.9049C3.21842 23.8994 0.469727 21.5018 0.469727 13.69ZM17.9828 16.9384C18.5064 16.2681 19.1346 16.165 19.8676 16.6291L22.6949 18.7174C23.1137 19.233 22.9305 19.9549 22.1451 20.883C21.3598 21.8111 20.6268 22.1979 19.9462 22.0432C17.1713 21.4244 14.5011 19.8775 11.9357 17.4025C9.37025 14.9275 7.77339 12.2462 7.14512 9.35868C7.14512 8.32742 7.79957 7.45085 9.10847 6.72897C9.7891 6.2649 10.365 6.39381 10.8362 7.11569L12.7996 9.82275C13.1137 10.4415 12.9305 11.0087 12.2498 11.5243C9.187 12.6845 16.2551 20.1869 17.9828 16.9384Z" fill="#7D63FF"/>
</svg>
