<svg width="31" height="31" viewBox="0 0 31 31" fill="none" xmlns="http://www.w3.org/2000/svg">
<path d="M14.9883 0.0179276C6.85973 0.407749 0.445138 7.22599 0.469797 15.4223C0.477306 17.9187 1.07567 20.275 2.13123 22.357L0.510577 30.2804C0.422908 30.709 0.806706 31.0843 1.22944 30.9834L8.93801 29.144C10.9185 30.1376 13.1429 30.7115 15.4972 30.7477C23.8054 30.8755 30.733 24.2311 30.9919 15.8663C31.2695 6.89971 23.922 -0.410594 14.9883 0.0179276ZM24.1863 23.8873C21.9288 26.161 18.9272 27.4132 15.7346 27.4132C13.8653 27.4132 12.0755 26.9908 10.415 26.1577L9.34147 25.6191L4.61532 26.7469L5.61015 21.8828L5.08126 20.8397C4.21923 19.1393 3.78214 17.3006 3.78214 15.3747C3.78214 12.1591 5.02539 9.13603 7.28291 6.86219C9.52026 4.60874 12.5708 3.33615 15.7349 3.33615C18.9274 3.33623 21.9289 4.58843 24.1864 6.86212C26.4439 9.13588 27.6871 12.159 27.6872 15.3745C27.6871 18.5614 26.4236 21.6339 24.1863 23.8873Z" fill="#7AD06D"/>
<path d="M23.1429 18.709L20.1861 17.8538C19.7974 17.7414 19.3787 17.8525 19.0955 18.1432L18.3724 18.8852C18.0675 19.1981 17.6049 19.2986 17.2014 19.1341C15.8027 18.564 12.8604 15.9291 12.109 14.6112C11.8922 14.231 11.928 13.7557 12.1942 13.4088L12.8255 12.5862C13.0728 12.2639 13.125 11.8311 12.9614 11.4586L11.7174 8.62476C11.4195 7.94602 10.5583 7.74844 9.99572 8.22767C9.17048 8.93065 8.19133 9.99892 8.07231 11.1824C7.86245 13.269 8.75091 15.8992 12.1107 19.0576C15.9921 22.7063 19.1003 23.1883 21.124 22.6946C22.2719 22.4146 23.1892 21.292 23.7681 20.3728C24.1628 19.7461 23.8512 18.9138 23.1429 18.709Z" fill="#7AD06D"/>
</svg>
